<?xml version="1.0" encoding="iso-8859-1"?>
<!-- Generator: Adobe Illustrator 19.0.0, SVG Export Plug-In . SVG Version: 6.00 Build 0)  -->
<svg version="1.1" id="Capa_1" xmlns="http://www.w3.org/2000/svg" xmlns:xlink="http://www.w3.org/1999/xlink" x="0px" y="0px"
	 viewBox="0 0 512.002 512.002" style="enable-background:new 0 0 512.002 512.002;" xml:space="preserve">
<g>
	<g>
		<path d="M511.257,197.652L486.863,62.722c-3.442-19.04-18.546-34.144-37.584-37.585L314.347,0.743
			c-15.03-2.713-30.458,2.11-41.259,12.912L13.631,273.109c-18.175,18.178-18.175,47.755,0.001,65.934l159.323,159.324
			c9.09,9.089,21.028,13.633,32.968,13.633c11.939,0,23.878-4.544,32.967-13.633l259.455-259.453
			C509.15,228.111,513.976,212.686,511.257,197.652z M477.112,217.681L217.658,477.135c-6.472,6.471-16.999,6.471-23.469,0
			L34.866,317.81c-6.471-6.471-6.471-16.998-0.001-23.469L294.319,34.887c3.14-3.139,7.376-4.86,11.738-4.86
			c0.981,0,1.968,0.087,2.95,0.264l134.931,24.395c6.776,1.224,12.152,6.601,13.377,13.378l24.394,134.929
			C482.677,208.344,480.958,213.835,477.112,217.681z"/>
	</g>
</g>
<g>
	<g>
		<path d="M417.967,93.618c-16.025-16.027-42.101-16.026-58.126,0c-16.027,16.026-16.027,42.101,0,58.127
			c8.012,8.013,18.537,12.02,29.063,12.02c10.526,0,21.05-4.007,29.062-12.019c7.764-7.764,12.039-18.085,12.039-29.064
			C430.006,111.703,425.731,101.381,417.967,93.618z M396.735,130.511v0.001c-4.317,4.318-11.342,4.32-15.661,0
			c-4.318-4.318-4.318-11.344,0-15.662c2.159-2.159,4.995-3.238,7.83-3.238c2.837,0,5.672,1.081,7.831,3.239
			c2.092,2.092,3.244,4.872,3.244,7.83S398.827,128.419,396.735,130.511z"/>
	</g>
</g>
<g>
	<g>
		<path d="M190.953,381.55l-23.198-23.198l13.577-13.577c1.378-1.378,1.887-2.967,1.527-4.765c-0.359-1.799-1.227-3.386-2.607-4.766
			c-1.497-1.497-3.163-2.412-4.99-2.742c-1.829-0.33-3.403,0.165-4.72,1.482l-13.577,13.577l-15.197-15.197l23.289-23.289
			c1.318-1.318,1.754-2.951,1.304-4.899c-0.449-1.947-1.543-3.791-3.282-5.53c-1.618-1.619-3.386-2.667-5.306-3.148
			c-1.917-0.477-3.565-0.029-4.943,1.349l-31.201,31.201c-1.679,1.68-2.743,3.493-3.192,5.441c-0.45,1.95,0.015,3.611,1.393,4.99
			l57.097,57.097c1.381,1.381,3.133,1.755,5.261,1.127c2.127-0.629,4.149-1.903,6.068-3.823c1.918-1.919,3.192-3.94,3.821-6.068
			C192.707,384.684,192.334,382.931,190.953,381.55z"/>
	</g>
</g>
<g>
	<g>
		<path d="M266.395,301.254c-0.659-0.659-1.347-1.049-2.068-1.169l-30.841-8.903c4.435-10.068,1.979-19.781-7.373-29.132
			c-12.827-12.827-26.616-11.868-41.362,2.878l-18.614,18.614c-1.259,1.258-1.873,2.71-1.843,4.36
			c0.03,1.65,0.615,3.043,1.753,4.181l57.187,57.187c1.381,1.381,3.132,1.756,5.26,1.125c2.128-0.629,4.15-1.903,6.068-3.821
			c1.918-1.918,3.192-3.939,3.823-6.068c0.629-2.128,0.255-3.88-1.126-5.261l-21.669-21.669l5.935-5.935l36.237,11.599
			c2.638,0.84,5.005,0.211,7.103-1.888c2.098-2.098,3.313-4.871,3.641-8.32C268.839,305.585,268.133,302.993,266.395,301.254z
			 M213.705,293.88l-8.903,8.903l-16.724-16.724l8.903-8.903c2.637-2.637,5.29-4,7.958-4.09c2.667-0.089,5.499,1.362,8.496,4.359
			c2.999,2.999,4.451,5.831,4.361,8.498C217.705,288.591,216.342,291.242,213.705,293.88z"/>
	</g>
</g>
<g>
	<g>
		<path d="M319.533,258.004c-0.479-1.918-1.528-3.686-3.147-5.305c-1.738-1.738-3.581-2.831-5.53-3.282
			c-1.949-0.447-3.583-0.013-4.9,1.304l-24.098,24.098l-15.285-15.285l13.488-13.488c1.378-1.378,1.888-2.968,1.528-4.766
			c-0.359-1.799-1.227-3.386-2.607-4.766c-1.497-1.497-3.163-2.412-4.99-2.742c-1.83-0.329-3.404,0.166-4.721,1.483l-13.488,13.488
			l-15.197-15.197l24.098-24.098c1.318-1.318,1.754-2.951,1.305-4.9c-0.449-1.947-1.543-3.791-3.282-5.53
			c-1.618-1.62-3.386-2.667-5.306-3.148c-1.917-0.477-3.566-0.028-4.944,1.35l-32.01,32.01c-1.677,1.679-2.742,3.492-3.191,5.44
			c-0.45,1.95,0.015,3.611,1.393,4.99l57.097,57.097c1.381,1.381,3.042,1.846,4.989,1.394c1.949-0.448,3.76-1.513,5.439-3.192
			l32.01-32.01C319.562,261.571,320.013,259.924,319.533,258.004z"/>
	</g>
</g>
<g>
	<g>
		<path d="M367.997,209.54c-0.479-1.918-1.528-3.686-3.147-5.305c-1.738-1.738-3.581-2.831-5.53-3.282
			c-1.949-0.447-3.582-0.014-4.9,1.304l-24.097,24.097l-15.285-15.285l13.487-13.487c1.378-1.378,1.888-2.968,1.528-4.766
			c-0.359-1.799-1.227-3.386-2.607-4.766c-1.497-1.497-3.163-2.412-4.99-2.741c-1.83-0.329-3.403,0.165-4.721,1.483l-13.487,13.487
			l-15.197-15.197l24.097-24.097c1.319-1.319,1.754-2.951,1.305-4.9c-0.449-1.947-1.543-3.791-3.282-5.53
			c-1.618-1.62-3.386-2.667-5.306-3.148c-1.917-0.477-3.566-0.028-4.944,1.35l-32.01,32.01c-1.677,1.678-2.742,3.492-3.191,5.44
			c-0.45,1.95,0.015,3.611,1.393,4.99l57.097,57.097c1.381,1.381,3.042,1.846,4.989,1.394c1.949-0.448,3.76-1.513,5.439-3.192
			l32.01-32.01C368.026,213.108,368.477,211.46,367.997,209.54z"/>
	</g>
</g>
<g>
</g>
<g>
</g>
<g>
</g>
<g>
</g>
<g>
</g>
<g>
</g>
<g>
</g>
<g>
</g>
<g>
</g>
<g>
</g>
<g>
</g>
<g>
</g>
<g>
</g>
<g>
</g>
<g>
</g>
</svg>
