<?xml version="1.0" encoding="iso-8859-1"?>
<!-- Generator: Adobe Illustrator 19.0.0, SVG Export Plug-In . SVG Version: 6.00 Build 0)  -->
<svg version="1.1" id="Capa_1" xmlns="http://www.w3.org/2000/svg" xmlns:xlink="http://www.w3.org/1999/xlink" x="0px" y="0px"
	 viewBox="0 0 384 384" style="enable-background:new 0 0 384 384;" xml:space="preserve">
<g>
	<g>
		<path d="M331.912,17.336c-8.832,0-16,7.168-16,16v13.336C281.544,16.704,237.712,0,191,0C85.68,0,0,85.992,0,191.68
			c0,8.832,7.168,16,16,16c8.832,0,16-7.168,16-16C32,103.632,103.328,32,191,32c38.456,0,74.584,13.616,103.064,38.072H279.4
			c-8.832,0-16,7.168-16,16c0,8.832,7.168,16,16,16h52.512c8.832,0,16-7.168,16-16V33.336
			C347.912,24.504,340.744,17.336,331.912,17.336z"/>
	</g>
</g>
<g>
	<g>
		<path d="M368,176.32c-8.832,0-16,7.168-16,16C352,280.368,280.672,352,193,352c-38.008,0-73.752-13.28-102.072-37.2h15.368
			c8.832,0,16-7.168,16-16c0-8.832-7.168-16-16-16h-52.52c-0.144,0-0.272,0.04-0.408,0.04c-0.608,0.016-1.208,0.096-1.816,0.184
			c-0.448,0.064-0.896,0.104-1.336,0.208c-0.528,0.12-1.048,0.312-1.568,0.488c-0.48,0.168-0.968,0.312-1.432,0.52
			c-0.44,0.2-0.856,0.456-1.28,0.696c-0.504,0.288-1,0.568-1.472,0.904c-0.12,0.088-0.256,0.136-0.376,0.232
			c-0.272,0.208-0.48,0.464-0.736,0.688c-0.424,0.368-0.848,0.736-1.232,1.152c-0.36,0.384-0.672,0.784-0.984,1.192
			c-0.312,0.408-0.616,0.816-0.896,1.248c-0.28,0.448-0.52,0.912-0.752,1.376c-0.232,0.456-0.448,0.92-0.632,1.4
			c-0.184,0.496-0.328,0.992-0.464,1.504c-0.128,0.488-0.264,0.976-0.344,1.48c-0.096,0.568-0.136,1.136-0.176,1.712
			c-0.024,0.328-0.096,0.648-0.096,0.984v52.736c0,8.832,7.168,16,16,16c8.832,0,16-7.168,16-16v-12.72
			C103.88,367.856,147.056,384,193,384c105.32,0,191-85.992,191-191.68C384,183.488,376.832,176.32,368,176.32z"/>
	</g>
</g>
<g>
</g>
<g>
</g>
<g>
</g>
<g>
</g>
<g>
</g>
<g>
</g>
<g>
</g>
<g>
</g>
<g>
</g>
<g>
</g>
<g>
</g>
<g>
</g>
<g>
</g>
<g>
</g>
<g>
</g>
</svg>
