<?xml version="1.0" encoding="iso-8859-1"?>
<!-- Generator: Adobe Illustrator 19.0.0, SVG Export Plug-In . SVG Version: 6.00 Build 0)  -->
<svg version="1.1" id="Capa_1" xmlns="http://www.w3.org/2000/svg" xmlns:xlink="http://www.w3.org/1999/xlink" x="0px" y="0px"
	 viewBox="0 0 512.001 512.001" style="enable-background:new 0 0 512.001 512.001;" xml:space="preserve">
<g>
	<g>
		<path d="M396.739,114.846c-2.159-2.159-4.994-3.239-7.831-3.239c-2.835,0-5.671,1.079-7.83,3.238
			c-4.318,4.318-4.318,11.344,0,15.661c4.319,4.32,11.344,4.318,15.66,0v-0.001c2.092-2.092,3.244-4.872,3.244-7.83
			C399.983,119.719,398.831,116.938,396.739,114.846z"/>
	</g>
</g>
<g>
	<g>
		<path d="M213.409,277.37c-2.998-2.998-5.829-4.449-8.497-4.361c-2.667,0.091-5.32,1.453-7.957,4.091l-8.902,8.902l16.724,16.724
			l8.902-8.902c2.637-2.637,4-5.289,4.091-7.957C217.86,283.201,216.407,280.369,213.409,277.37z"/>
	</g>
</g>
<g>
	<g>
		<path d="M511.257,197.644L486.863,62.719c-3.441-19.037-18.543-34.14-37.58-37.582L314.357,0.744
			c-15.038-2.719-30.457,2.109-41.258,12.91L13.655,273.099C4.85,281.904,0,293.611,0,306.063c0,12.452,4.849,24.16,13.655,32.964
			l159.32,159.319c8.805,8.806,20.512,13.655,32.964,13.655s24.16-4.849,32.964-13.655l259.444-259.444
			C509.148,228.1,513.974,212.676,511.257,197.644z M192.053,386.748c-0.63,2.129-1.903,4.151-3.82,6.068
			c-1.92,1.92-3.941,3.193-6.069,3.821c-2.128,0.631-3.879,0.255-5.26-1.125l-57.094-57.094c-1.378-1.378-1.844-3.04-1.394-4.988
			c0.448-1.948,1.513-3.761,3.192-5.441l31.2-31.2c1.378-1.378,3.028-1.828,4.944-1.35c1.92,0.48,3.686,1.529,5.305,3.149
			c1.738,1.739,2.833,3.582,3.283,5.529c0.448,1.95,0.013,3.582-1.305,4.9l-23.288,23.288l15.196,15.196l13.577-13.577
			c1.317-1.317,2.891-1.813,4.72-1.484c1.828,0.33,3.492,1.246,4.989,2.743c1.379,1.379,2.248,2.968,2.608,4.765
			c0.358,1.798-0.15,3.388-1.528,4.766l-13.577,13.577l23.197,23.197C192.31,382.868,192.683,384.621,192.053,386.748z
			 M268.479,308.973c-0.329,3.447-1.544,6.22-3.642,8.318c-2.099,2.099-4.465,2.727-7.103,1.888L221.5,307.581l-5.934,5.934
			l21.668,21.668c1.38,1.38,1.753,3.134,1.124,5.261c-0.631,2.13-1.904,4.152-3.821,6.069c-1.919,1.919-3.941,3.192-6.068,3.82
			c-2.129,0.632-3.88,0.256-5.26-1.124l-57.184-57.184c-1.139-1.139-1.722-2.531-1.753-4.182c-0.029-1.647,0.586-3.102,1.845-4.36
			l18.612-18.612c14.745-14.745,28.533-15.705,41.36-2.878c9.35,9.352,11.807,19.063,7.372,29.131l30.839,8.903
			c0.721,0.12,1.409,0.51,2.068,1.169C268.105,302.936,268.809,305.527,268.479,308.973z M318.156,262.894l-32.008,32.008
			c-1.679,1.679-3.491,2.742-5.441,3.192c-1.948,0.45-3.609-0.015-4.989-1.395l-57.094-57.094c-1.378-1.378-1.844-3.04-1.394-4.988
			c0.449-1.949,1.513-3.761,3.192-5.441l32.009-32.008c1.378-1.378,3.028-1.828,4.944-1.35c1.92,0.48,3.686,1.529,5.305,3.149
			c1.738,1.739,2.833,3.582,3.283,5.529c0.448,1.95,0.013,3.582-1.305,4.9l-24.097,24.097l15.196,15.196l13.488-13.488
			c1.317-1.317,2.892-1.813,4.72-1.484c1.828,0.33,3.493,1.245,4.99,2.742c1.379,1.379,2.248,2.968,2.607,4.766
			c0.358,1.798-0.15,3.388-1.528,4.766l-13.488,13.488l15.284,15.284l24.097-24.097c1.317-1.317,2.952-1.752,4.9-1.304
			c1.949,0.451,3.79,1.544,5.529,3.283c1.617,1.617,2.668,3.386,3.148,5.304C319.985,259.868,319.534,261.515,318.156,262.894z
			 M366.617,214.432l-32.01,32.01c-1.679,1.679-3.492,2.743-5.441,3.192c-1.948,0.45-3.609-0.015-4.989-1.395l-57.094-57.094
			c-1.378-1.378-1.844-3.04-1.394-4.988c0.449-1.949,1.513-3.761,3.192-5.441l32.008-32.008c1.378-1.378,3.028-1.828,4.944-1.35
			c1.919,0.481,3.686,1.529,5.305,3.149c1.738,1.739,2.833,3.582,3.283,5.529c0.448,1.95,0.013,3.582-1.305,4.9l-24.097,24.097
			l15.196,15.196l13.488-13.488c1.317-1.317,2.891-1.813,4.72-1.484c1.828,0.33,3.492,1.246,4.989,2.743
			c1.379,1.379,2.248,2.968,2.608,4.765c0.358,1.798-0.15,3.388-1.528,4.766l-13.488,13.488l15.284,15.284l24.097-24.097
			c1.317-1.317,2.952-1.751,4.9-1.303c1.95,0.45,3.791,1.543,5.53,3.282c1.617,1.617,2.667,3.387,3.148,5.304
			C368.447,211.406,367.996,213.054,366.617,214.432z M417.971,151.74c-8.012,8.012-18.537,12.018-29.061,12.018
			c-10.526,0-21.05-4.006-29.062-12.019c-16.026-16.025-16.026-42.099,0-58.124c16.024-16.025,42.099-16.026,58.123,0
			c7.764,7.763,12.038,18.084,12.038,29.062C430.009,133.655,425.734,143.976,417.971,151.74z"/>
	</g>
</g>
<g>
</g>
<g>
</g>
<g>
</g>
<g>
</g>
<g>
</g>
<g>
</g>
<g>
</g>
<g>
</g>
<g>
</g>
<g>
</g>
<g>
</g>
<g>
</g>
<g>
</g>
<g>
</g>
<g>
</g>
</svg>
